<svg width="161" height="161" viewBox="0 0 161 161" fill="none" xmlns="http://www.w3.org/2000/svg">
<circle cx="80.5" cy="80.5" r="80" fill="white"/>
<circle cx="80.5" cy="80.5" r="70" fill="#DEE2EF"/>
<mask id="mask0_2973_8310" style="mask-type:alpha" maskUnits="userSpaceOnUse" x="10" y="10" width="141" height="141">
<circle cx="80.5" cy="80.5" r="70" fill="#FFD6D6"/>
</mask>
<g mask="url(#mask0_2973_8310)">
<mask id="mask1_2973_8310" style="mask-type:luminance" maskUnits="userSpaceOnUse" x="22" y="44" width="117" height="117">
<path d="M22.5312 44.5632H138.468V160.5H22.5312V44.5632Z" fill="white"/>
</mask>
<g mask="url(#mask1_2973_8310)">
<path d="M124.48 76.8609L97.0211 49.4022C95.8654 48.3151 94.3319 47.7207 92.7455 47.7449C91.159 47.769 89.6443 48.4098 88.5222 49.5315C87.4002 50.6532 86.7588 52.1677 86.7341 53.7541C86.7094 55.3405 87.3033 56.8742 88.3899 58.0303L76.6162 69.804L104.075 97.2627L115.849 85.489C116.993 86.6336 118.545 87.2767 120.163 87.277C120.964 87.2772 121.758 87.1195 122.498 86.813C123.239 86.5064 123.912 86.0571 124.478 85.4905C125.045 84.924 125.495 84.2514 125.801 83.5111C126.108 82.7708 126.266 81.9774 126.266 81.176C126.266 80.3747 126.109 79.5812 125.802 78.8408C125.496 78.1004 125.046 77.4276 124.48 76.8609Z" fill="#C8CCDB"/>
<path d="M92.7037 47.6144H46.9392C43.7026 47.6144 40.5985 48.9001 38.3098 51.1888C36.0211 53.4775 34.7354 56.5816 34.7354 59.8182V145.245C34.7354 148.482 36.0211 151.586 38.3098 153.875C40.5985 156.163 43.7026 157.449 46.9392 157.449H114.061C117.297 157.449 120.401 156.163 122.69 153.875C124.979 151.586 126.264 148.482 126.264 145.245V81.175H98.8057C95.7547 81.175 92.7037 78.124 92.7037 75.0731V47.6144Z" fill="url(#paint0_linear_2973_8310)"/>
<path d="M92.7035 47.6138H86.6016V75.0725C86.6016 78.3092 87.8873 81.4133 90.176 83.7019C92.4647 85.9906 95.5688 87.2764 98.8054 87.2764H126.264V81.1744H98.8054C95.7545 81.1744 92.7035 78.1235 92.7035 75.0725V47.6138Z" fill="white"/>
<path d="M77.4491 81.5643C77.4491 82.3734 77.1277 83.1495 76.5555 83.7216C75.9834 84.2938 75.2073 84.6152 74.3982 84.6152H49.9904C49.1813 84.6152 48.4052 84.2938 47.8331 83.7216C47.2609 83.1495 46.9395 82.3734 46.9395 81.5643C46.9395 80.7551 47.2609 79.9791 47.8331 79.4069C48.4052 78.8347 49.1813 78.5133 49.9904 78.5133H74.3982C75.2073 78.5133 75.9834 78.8347 76.5555 79.4069C77.1277 79.9791 77.4491 80.7551 77.4491 81.5643Z" fill="white"/>
<path d="M77.4491 128.156C77.4491 128.965 77.1277 129.741 76.5555 130.313C75.9834 130.886 75.2073 131.207 74.3982 131.207H49.9904C49.1813 131.207 48.4052 130.886 47.8331 130.313C47.2609 129.741 46.9395 128.965 46.9395 128.156C46.9395 127.347 47.2609 126.571 47.8331 125.999C48.4052 125.427 49.1813 125.105 49.9904 125.105H74.3982C75.2073 125.105 75.9834 125.427 76.5555 125.999C77.1277 126.571 77.4491 127.347 77.4491 128.156Z" fill="white"/>
<path d="M114.061 96.3729C114.061 97.182 113.739 97.9581 113.167 98.5302C112.595 99.1024 111.819 99.4238 111.01 99.4238H49.9904C49.1813 99.4238 48.4052 99.1024 47.8331 98.5302C47.2609 97.9581 46.9395 97.182 46.9395 96.3729C46.9395 95.5637 47.2609 94.7877 47.8331 94.2155C48.4052 93.6433 49.1813 93.3219 49.9904 93.3219H111.01C111.819 93.3219 112.595 93.6433 113.167 94.2155C113.739 94.7877 114.061 95.5637 114.061 96.3729Z" fill="white"/>
<path d="M102.712 111.161C102.712 111.976 102.445 112.757 101.971 113.332C101.497 113.908 100.854 114.231 100.183 114.231H49.619C48.9485 114.231 48.3054 113.908 47.8313 113.332C47.3572 112.757 47.0908 111.976 47.0908 111.161C47.0908 110.347 47.3572 109.566 47.8313 108.991C48.3054 108.415 48.9485 108.091 49.619 108.091H100.183C100.854 108.091 101.497 108.415 101.971 108.991C102.445 109.566 102.712 110.347 102.712 111.161Z" fill="white"/>
</g>
<path d="M116.434 130.635L115.219 131.767L111.615 127.903L110.335 126.53L111.549 125.397L112.829 126.77L116.434 130.635Z" fill="#9DA0AA"/>
<path d="M112.829 126.77C112.635 126.966 112.436 127.159 112.234 127.348C112.031 127.537 111.824 127.723 111.615 127.902L110.335 126.529L111.553 125.396L112.829 126.77ZM116.628 130.816C116.435 131.012 116.235 131.205 116.033 131.394C115.83 131.584 115.623 131.77 115.414 131.948L114.134 130.575L115.352 129.443L116.628 130.816Z" fill="#9E9FB3"/>
<path d="M117.869 112.611C117.728 116.572 116.417 120.402 114.1 123.618C111.784 126.834 108.566 129.291 104.854 130.68C101.142 132.068 97.1017 132.325 93.2435 131.419C89.3853 130.512 85.8822 128.483 83.1768 125.586C79.5511 121.698 77.6182 116.529 77.8032 111.216C77.9881 105.903 80.2758 100.881 84.1632 97.2544C92.2444 89.7155 104.955 90.1573 112.494 98.2407C114.296 100.162 115.698 102.421 116.621 104.887C117.544 107.354 117.968 109.979 117.869 112.611Z" fill="url(#paint1_linear_2973_8310)"/>
<path d="M114.125 112.488C113.979 116.707 112.2 120.705 109.165 123.639C106.129 126.573 102.074 128.215 97.8518 128.219C97.6592 128.219 97.4655 128.215 97.2706 128.209C96.2585 128.174 95.2516 128.046 94.2629 127.827C92.3802 127.408 90.588 126.655 88.9713 125.604C87.854 124.875 86.8294 124.014 85.9203 123.038C83.0059 119.871 81.4622 115.68 81.6261 111.38C81.79 107.079 83.6483 103.018 86.7954 100.083C89.9426 97.1473 94.123 95.5758 98.4245 95.7112C102.726 95.8466 106.799 97.6778 109.756 100.805C110.407 101.503 110.997 102.257 111.518 103.057C112.571 104.672 113.325 106.463 113.744 108.345C114.047 109.704 114.175 111.096 114.125 112.488Z" fill="url(#paint2_linear_2973_8310)"/>
<path d="M131.409 147.412C130.724 148.054 129.819 148.41 128.881 148.409H128.749C128.263 148.393 127.785 148.282 127.342 148.081C126.899 147.88 126.501 147.593 126.17 147.237L112.533 133.14L117.958 128.077L131.592 142.167C132.261 142.888 132.618 143.844 132.584 144.828C132.55 145.811 132.127 146.74 131.409 147.412Z" fill="#858592"/>
<path d="M131.892 146.863C131.549 147.342 131.097 147.733 130.573 148.002C130.05 148.272 129.47 148.413 128.881 148.413H128.749C128.263 148.397 127.784 148.285 127.342 148.083C126.899 147.882 126.5 147.594 126.17 147.238L112.533 133.14L113.412 132.319L127.02 146.385C127.351 146.741 127.749 147.028 128.192 147.229C128.635 147.43 129.113 147.542 129.599 147.558H129.731C130.506 147.559 131.262 147.316 131.892 146.863Z" fill="#F8F8F8"/>
<rect width="21.6785" height="4.95509" rx="2.47754" transform="matrix(0.693729 0.720236 -0.693729 0.720236 92.0654 102.316)" fill="#D9325A"/>
<rect width="21.6785" height="4.95509" rx="2.47754" transform="matrix(0.693729 -0.720236 0.693729 0.720236 88.6279 117.931)" fill="#D9325A"/>
</g>
<defs>
<linearGradient id="paint0_linear_2973_8310" x1="80.4999" y1="157.449" x2="80.4999" y2="47.6144" gradientUnits="userSpaceOnUse">
<stop stop-color="#CACAD7"/>
<stop offset="1" stop-color="#BFBFCD"/>
</linearGradient>
<linearGradient id="paint1_linear_2973_8310" x1="97.8369" y1="91.877" x2="97.8369" y2="131.95" gradientUnits="userSpaceOnUse">
<stop stop-color="#CFD3DE"/>
<stop offset="1" stop-color="#8F949D"/>
</linearGradient>
<linearGradient id="paint2_linear_2973_8310" x1="97.8749" y1="95.7031" x2="97.8749" y2="128.219" gradientUnits="userSpaceOnUse">
<stop stop-color="#EFF2FF"/>
<stop offset="1" stop-color="white"/>
</linearGradient>
</defs>
</svg>
