<svg width="16" height="16" viewBox="0 0 16 16" fill="none" xmlns="http://www.w3.org/2000/svg">
<path fill-rule="evenodd" clip-rule="evenodd" d="M7.99935 2.66663C8.36754 2.66663 8.66602 2.9651 8.66602 3.33329V7.33329H12.666C13.0342 7.33329 13.3327 7.63177 13.3327 7.99996C13.3327 8.36815 13.0342 8.66663 12.666 8.66663H8.66602V12.6666C8.66602 13.0348 8.36754 13.3333 7.99935 13.3333C7.63116 13.3333 7.33268 13.0348 7.33268 12.6666V8.66663H3.33268C2.96449 8.66663 2.66602 8.36815 2.66602 7.99996C2.66602 7.63177 2.96449 7.33329 3.33268 7.33329H7.33268V3.33329C7.33268 2.9651 7.63116 2.66663 7.99935 2.66663Z" fill="#6B6D70"/>
</svg>
